<?xml version="1.0" encoding="UTF-8" standalone="no"?>
<!-- Created with Inkscape (http://www.inkscape.org/) -->

<svg
   xmlns:dc="http://purl.org/dc/elements/1.1/"
   xmlns:cc="http://creativecommons.org/ns#"
   xmlns:rdf="http://www.w3.org/1999/02/22-rdf-syntax-ns#"
   xmlns:svg="http://www.w3.org/2000/svg"
   xmlns="http://www.w3.org/2000/svg"
   xmlns:sodipodi="http://sodipodi.sourceforge.net/DTD/sodipodi-0.dtd"
   xmlns:inkscape="http://www.inkscape.org/namespaces/inkscape"
   width="700.26324"
   height="499.76135"
   id="svg2"
   version="1.1"
   inkscape:version="0.48.2 r9819"
   sodipodi:docname="envelope.svg">
  <defs
     id="defs4" />
  <sodipodi:namedview
     id="base"
     pagecolor="#ffffff"
     bordercolor="#666666"
     borderopacity="1.0"
     inkscape:pageopacity="0.0"
     inkscape:pageshadow="2"
     inkscape:zoom="1.045354"
     inkscape:cx="318.43936"
     inkscape:cy="251.55587"
     inkscape:document-units="px"
     inkscape:current-layer="layer2"
     showgrid="true"
     inkscape:snap-global="false"
     inkscape:window-width="1347"
     inkscape:window-height="720"
     inkscape:window-x="28"
     inkscape:window-y="41"
     inkscape:window-maximized="0"
     fit-margin-top="0"
     fit-margin-left="0"
     fit-margin-right="0"
     fit-margin-bottom="0">
    <inkscape:grid
       type="xygrid"
       id="grid2989"
       empspacing="5"
       visible="true"
       enabled="true"
       snapvisiblegridlinesonly="true" />
  </sodipodi:namedview>
  <metadata
     id="metadata7">
    <rdf:RDF>
      <cc:Work
         rdf:about="">
        <dc:format>image/svg+xml</dc:format>
        <dc:type
           rdf:resource="http://purl.org/dc/dcmitype/StillImage" />
        <dc:title></dc:title>
      </cc:Work>
    </rdf:RDF>
  </metadata>
  <g
     inkscape:label="Layer 1"
     inkscape:groupmode="layer"
     id="layer1"
     transform="translate(-49.115949,-153.06397)"
     style="display:inline">
    <g
       id="g3022"
       transform="matrix(1.0921009,0,0,1.6588048,-4.5364512,-430.21327)">
      <path
         inkscape:connector-curvature="0"
         id="rect2991"
         d="m 50.1875,351.625 0,0.5 0,299.40625 0,0.5 0.5,0 639.03125,0 0.5,0 0,-0.5 0,-299.40625 0,-0.5 -0.5,0 -639.03125,0 -0.5,0 z m 1,1 638.03125,0 0,298.40625 -638.03125,0 0,-298.40625 z"
         style="font-size:medium;font-style:normal;font-variant:normal;font-weight:normal;font-stretch:normal;text-indent:0;text-align:start;text-decoration:none;line-height:normal;letter-spacing:normal;word-spacing:normal;text-transform:none;direction:ltr;block-progression:tb;writing-mode:lr-tb;text-anchor:start;baseline-shift:baseline;color:#000000;fill-opacity:1;fill-rule:nonzero;stroke:none;stroke-width:1;marker:none;visibility:visible;display:inline;overflow:visible;enable-background:accumulate;font-family:Sans;-inkscape-font-specification:Sans" />
      <path
         inkscape:connector-curvature="0"
         id="path2993"
         d="M 49.743916,352.1209 370.20953,512.83202 689.71853,352.1209"
         style="fill:none;stroke:#000000;stroke-width:1px;stroke-linecap:butt;stroke-linejoin:miter;stroke-opacity:1" />
      <path
         inkscape:connector-curvature="0"
         id="path2995"
         d="M 50.703048,651.53849 330.02922,493.70226"
         style="fill:none;stroke:#000000;stroke-width:1.00503588px;stroke-linecap:butt;stroke-linejoin:miter;stroke-opacity:1" />
      <path
         inkscape:connector-curvature="0"
         id="path2997"
         d="m 411.34577,492.74498 278.37091,159.7508"
         style="fill:none;stroke:#000000;stroke-width:1.00369596px;stroke-linecap:butt;stroke-linejoin:miter;stroke-opacity:1" />
    </g>
  </g>
  <g
     inkscape:groupmode="layer"
     id="layer2"
     inkscape:label="Fill">
    <path
       style="fill:#ffffff"
       d="m 2.5654907,249.59228 c 0,-134.71736 0.2431326,-244.9406608 0.5402946,-244.9406608 0.4492351,0 284.1525247,215.7780008 298.1096247,226.7351208 l 4.49119,3.52584 -150.29453,129.04518 C 72.750088,434.93262 4.5433393,493.3472 3.8415221,493.76794 2.77922,494.40481 2.5654907,453.50652 2.5654907,249.59228 z"
       id="path3084"
       inkscape:connector-curvature="0" />
    <path
       style="fill:#ffffff"
       d="M 179.06073,135.1676 C 84.882106,63.372218 6.965914,4.0121477 5.9136388,3.2563351 4.2491287,2.0607753 48.997083,1.8756074 350.13168,1.8319541 L 696.26297,1.7817778 523.46592,133.79448 C 428.42755,206.40146 350.58467,265.78411 350.48174,265.75592 350.37881,265.72773 273.23936,206.96299 179.06073,135.1676 z"
       id="path3086"
       inkscape:connector-curvature="0" />
    <path
       style="fill:#ffffff"
       d="M 569.35915,383.88105 C 498.33058,321.96895 430.48674,262.83353 418.59507,252.46899 L 396.97385,233.62438 547.56501,118.56649 C 630.39015,55.28465 698.34243,3.6948599 698.57008,3.9225102 698.79773,4.1501606 698.87554,115.06164 698.743,250.39246 L 698.50201,496.4485 569.35915,383.88105 z"
       id="path3088"
       inkscape:connector-curvature="0" />
    <path
       style="fill:#ffffff"
       d="M 6.4261105,495.05455 C 11.54667,490.31492 304.96945,238.96701 306.49177,238.0163 c 1.71642,-1.07192 3.9484,0.3641 22.30526,14.35086 11.21889,8.54809 20.86063,15.70915 21.42608,15.91347 0.56545,0.20433 10.8777,-7.18614 22.91611,-16.42325 l 21.88801,-16.79475 2.98395,2.7973 c 1.64117,1.53851 68.63157,59.95888 148.86755,129.82305 80.23598,69.86416 146.29255,127.39528 146.79238,127.84693 0.50611,0.45734 -151.8548,0.82119 -343.86849,0.82119 -290.1665,0 -344.5553936,-0.20537 -343.3765095,-1.29655 z"
       id="path3090"
       inkscape:connector-curvature="0" />
    <path
       style="fill:#ffffff"
       d="m 2.5654907,249.6012 c 0,-134.72227 0.2431326,-244.9495808 0.5402946,-244.9495808 0.4493813,0 284.1596247,215.7834608 298.1145947,226.7390808 l 4.49615,3.52979 -11.67076,10.03493 C 212.21461,315.31679 4.6097138,493.28738 3.7273106,493.83273 2.8171153,494.39527 2.5654907,441.5001 2.5654907,249.6012 z"
       id="path3092"
       inkscape:connector-curvature="0" />
  </g>
</svg>
